<svg width="246" height="88" viewBox="0 0 246 88" fill="none" xmlns="http://www.w3.org/2000/svg">
<g clip-path="url(#clip0_1_910)">
<path d="M52.3288 32.6531C52.3287 32.5024 52.2951 32.3535 52.2304 32.2169C52.1656 32.0803 52.0713 31.9592 51.9539 31.8622C51.8365 31.7651 51.6989 31.6945 51.5508 31.6551C51.4027 31.6157 51.2477 31.6086 51.0965 31.6342C49.8193 31.8698 48.6301 32.4379 47.6529 33.2792C46.6758 34.1205 45.9466 35.204 45.5416 36.4167L41.9767 46.914H38.0597C37.7241 46.9131 37.4019 47.0424 37.1629 47.2736C36.9239 47.5049 36.7875 47.8195 36.7833 48.1489V61.181C36.7834 61.3321 36.817 61.4814 36.882 61.6184C36.9469 61.7553 37.0415 61.8767 37.1592 61.9741C37.2768 62.0714 37.4147 62.1423 37.5632 62.1819C37.7117 62.2214 37.8672 62.2286 38.0188 62.203C39.3067 61.9665 40.5061 61.3944 41.4917 60.5465C42.4772 59.6986 43.2126 58.6062 43.6208 57.3835L47.1732 46.9201H52.3665L52.3288 32.6531Z" fill="#001D3D"/>
<path d="M70.5462 52.0203C69.5183 52.0203 68.5135 52.3197 67.6589 52.8806C66.8043 53.4415 66.1382 54.2387 65.745 55.1715C65.3518 56.1042 65.2491 57.1305 65.4498 58.1206C65.6506 59.1107 66.1458 60.02 66.8729 60.7336C67.5999 61.4473 68.5261 61.9331 69.5344 62.1297C70.5426 62.3262 71.5875 62.2247 72.537 61.838C73.4865 61.4512 74.2979 60.7966 74.8685 59.9569C75.4391 59.1173 75.7433 58.1302 75.7427 57.1207C75.7427 56.4507 75.6083 55.7872 75.3471 55.1681C75.0859 54.5491 74.7031 53.9867 74.2205 53.5131C73.7379 53.0394 73.165 52.6638 72.5346 52.4076C71.9041 52.1515 71.2285 52.0199 70.5462 52.0203Z" fill="#93C7E7"/>
<path d="M67.9057 32.6528C67.9055 32.5027 67.8721 32.3545 67.8077 32.2184C67.7433 32.0823 67.6495 31.9615 67.5329 31.8646C67.4162 31.7677 67.2795 31.6968 67.1322 31.657C66.9848 31.6171 66.8304 31.6093 66.6797 31.6339C65.4026 31.8695 64.2133 32.4376 63.2362 33.2789C62.259 34.1201 61.5298 35.2037 61.1248 36.4164L57.5599 46.9137H52.3666V61.1807C52.3666 61.3318 52.4003 61.4811 52.4652 61.618C52.5301 61.755 52.6247 61.8764 52.7424 61.9738C52.8601 62.0711 52.998 62.142 53.1465 62.1815C53.2949 62.2211 53.4504 62.2283 53.602 62.2027C54.8899 61.9662 56.0894 61.3941 57.0749 60.5462C58.0605 59.6983 58.7958 58.6059 59.2041 57.3832L62.7564 46.9198H66.6703C66.8382 46.9198 67.0044 46.8873 67.1594 46.8241C67.3145 46.7609 67.4553 46.6683 67.5739 46.5516C67.6925 46.4349 67.7864 46.2963 67.8504 46.1439C67.9143 45.9914 67.947 45.8281 67.9466 45.6632L67.9057 32.6528Z" fill="#001D3D"/>
<path d="M105.001 41.9026C104.014 41.8943 103.039 42.1105 102.151 42.5342C101.264 42.9579 100.489 43.5776 99.8858 44.3448C98.7509 42.7826 96.8679 41.9026 94.6107 41.9026C93.2098 41.8893 91.8445 42.3359 90.7314 43.1716V41.9119H86.7861V57.4572H90.744V48.9482C90.744 46.6573 91.8946 45.3976 93.9851 45.3976C96.0757 45.3976 97.2011 46.6573 97.2011 48.9482V57.4572H101.131V48.9482C101.131 46.6573 102.284 45.3976 104.375 45.3976C106.466 45.3976 107.588 46.6573 107.588 48.9482V57.4572H111.521V48.5036C111.521 44.4899 108.965 41.9026 105.013 41.9026" fill="#001D3D"/>
<path d="M122.103 41.9026C117.56 41.9026 114.262 45.1722 114.262 49.6799C114.262 54.277 117.431 57.4849 121.97 57.4849C126.592 57.4849 129.943 54.203 129.943 49.6799C129.943 45.1567 126.645 41.9026 122.103 41.9026ZM121.977 54.027C120.169 54.027 118.236 52.8846 118.236 49.6799C118.236 47.6885 119.235 45.3574 122.055 45.3574C124.749 45.3574 125.957 47.5186 125.957 49.6799C125.957 52.6839 123.957 54.027 121.977 54.027Z" fill="#001D3D"/>
<path d="M182.54 41.5693C182.54 40.1552 182.999 39.7446 184.583 39.7446H185.045V36.3484H184.583C180.471 36.3484 178.557 38.0063 178.557 41.5631V41.9058H176.824V45.2495H178.563V57.4572H182.546V45.2495H185.265V41.912H182.546L182.54 41.5693Z" fill="#001D3D"/>
<path d="M191.964 41.9119H188.006V57.4571H191.964V41.9119Z" fill="#001D3D"/>
<path d="M190.012 36.4069C189.534 36.402 189.066 36.5366 188.667 36.7936C188.268 37.0506 187.955 37.4184 187.769 37.8503C187.583 38.2821 187.532 38.7586 187.622 39.219C187.712 39.6795 187.94 40.1032 188.276 40.4363C188.612 40.7694 189.041 40.9969 189.509 41.0898C189.977 41.1827 190.463 41.1369 190.904 40.9582C191.346 40.7795 191.723 40.4759 191.989 40.086C192.254 39.6962 192.395 39.2377 192.395 38.7688C192.398 38.4598 192.339 38.1532 192.221 37.8668C192.103 37.5803 191.928 37.3198 191.707 37.1001C191.485 36.8805 191.222 36.7061 190.932 36.5871C190.641 36.4681 190.33 36.4069 190.015 36.4069" fill="#001D3D"/>
<path d="M202.571 41.9027C201.161 41.8884 199.786 42.3347 198.663 43.1716V41.9119H194.705V57.4572H198.663V48.9482C198.663 46.6573 199.814 45.3977 201.904 45.3977C203.995 45.3977 205.12 46.6573 205.12 48.9482V57.4572H209.056V48.5036C209.056 44.49 206.513 41.9027 202.577 41.9027" fill="#001D3D"/>
<path d="M150.898 41.9026C149.912 41.8943 148.936 42.1104 148.049 42.5341C147.162 42.9578 146.386 43.5776 145.783 44.3448C144.649 42.7825 142.769 41.9026 140.511 41.9026C139.11 41.8902 137.744 42.3367 136.629 43.1715V41.9119H132.684V57.4571H136.642V48.9481C136.642 46.6573 137.792 45.3976 139.883 45.3976C141.973 45.3976 143.099 46.6573 143.099 48.9481V57.4571H147.031V48.9481C147.031 46.6573 148.182 45.3976 150.273 45.3976C152.363 45.3976 153.489 46.6573 153.489 48.9481V57.4571H157.418V48.5035C157.418 44.4899 154.865 41.9026 150.911 41.9026" fill="#001D3D"/>
<path d="M168 41.9026C163.458 41.9026 160.16 45.1722 160.16 49.6799C160.16 54.277 163.329 57.4849 167.868 57.4849C172.489 57.4849 175.844 54.203 175.844 49.6799C175.844 45.1567 172.546 41.9026 167.984 41.9026M167.874 54.027C166.067 54.027 164.133 52.8846 164.133 49.6799C164.133 47.6885 165.133 45.3574 167.953 45.3574C170.647 45.3574 171.854 47.5186 171.854 49.6799C171.854 52.6839 169.855 54.027 167.874 54.027Z" fill="#001D3D"/>
</g>
<defs>
<clipPath id="clip0_1_910">
<rect width="172.267" height="30.6058" fill="white" transform="translate(36.7833 31.6184)"/>
</clipPath>
</defs>
</svg>
